<svg xmlns="http://www.w3.org/2000/svg" xmlns:xlink="http://www.w3.org/1999/xlink" width="595" height="327" version="1.1" id="Layer_1" x="0px" y="0px" viewBox="0 0 595.28 326.93" style="enable-background:new 0 0 595.28 326.93;" xml:space="preserve">
<style type="text/css">
	.st0{fill:#00bdba;}
</style>
<path id="Union_3" class="st0" d="M206.48,257.59c0-21.41,24.78-32.8,24.78-32.8c-9.36-3.47-15.56-12.42-15.52-22.41  c0-17.26,16.52-27.4,22.24-32.58c-1.11-0.56-22.39-12.25-22.39-44.27s22.12-51.55,58.77-51.55c17.35,0,21.69,2.58,21.69,2.58h54.77  v16.07H320.6c0,0,10.5,8.41,10.5,31.07S320.5,177,270.99,177c-7.56-0.06-15.07-1.18-22.33-3.3c0,0-11.15,8.28-11.15,18.14  S242.07,205,251.61,205h58.44c0,0,36.35-2.66,36.35,39.07s-47.62,50.52-73.24,50.52S206.48,290.77,206.48,257.59z M231.86,254.93  c0,12.49,6.56,27.28,44.65,27.28s44.32-16.75,44.34-32.97c0.11-10.7-8.1-19.65-18.78-20.46l-55-1.16  C243.52,229.79,231.86,242.45,231.86,254.93z M243.19,125.85v0.2c-0.15,2.28,0.6,38.27,30,38.27c30.71,0,30-38.39,30-38.39  s2.28-39.94-30.12-39.94C241.82,85.99,242.95,123.54,243.19,125.85L243.19,125.85z M145.46,179.67v-10.15  c-0.04-6.54,2.06-12.91,5.98-18.14c5.11-6.89,13.29-10.83,21.87-10.53c23.59,0,23.71,23.67,23.71,23.69v5.84h-39.7v9.98  c0,0,0.87,15.45,15.43,15.45s19.18-8.51,19.18-8.51l4.05,4.05c0,0-10.42,11.9-24.42,11.9S145.46,190.09,145.46,179.67z   M158.19,165.26h26.85c0,0,1.82-20.37-11.64-20.37C159.81,144.9,158.19,157.3,158.19,165.26z M48.31,187.79v-40.26H38.17v-3.3  c5.89-1.44,10.06-6.67,10.14-12.72v-5.92H59.3v15.2h20.28v6.75H59.3v37.6c0,0-0.36,10.74,9.89,10.58c7.64-0.8,9.25-4.61,9.25-4.61  l3.3,3.57c-4.53,4.57-10.54,7.39-16.96,7.96C55.52,202.61,48.31,198.72,48.31,187.79L48.31,187.79z M118.44,202.47v-3.98  c3.52,0.18,6.53-2.5,6.77-6.02v-34.06c-0.04-5.65-4.64-10.21-10.3-10.18c-0.06,0-0.12,0-0.18,0c-10.26,0-15.63,11.69-15.63,11.69  v33.65c0,3.54,7.47,4.93,7.47,4.93v3.95H81.24v-3.78c7.04,0,7.59-5.1,7.59-5.1v-72.84c0-5.28-8.43-5.33-8.43-5.33v-4.21h18.74v40.49  c0,0,3.88-11.65,20.4-11.65s16.63,18.37,16.63,18.37v34.06c0,5.47,7.09,5.69,7.29,5.9c0.08,1.37,0.08,2.73,0,4.1L118.44,202.47z   M456.74,150.83c0-52.66,45.5-51.31,45.5-51.31c0.33-0.03,0.67-0.05,1.01-0.04c6.68,0,44.35,2.24,44.39,51.55  c0,52.85-45.4,51.12-45.4,51.12s-0.79,0.07-2.16,0.07C491.03,202.2,456.74,199.02,456.74,150.83L456.74,150.83z M502.17,108.19  c-5.73,0-25.57,0.22-25.57,42.88s20.2,42.88,25.57,42.88s25.69-1.16,25.69-44.54c0-39.42-21.2-41.23-25.08-41.23  C502.39,108.17,502.17,108.19,502.17,108.19L502.17,108.19z M422.64,200.72v-5.69c0,0,10.99-0.79,10.99-10.62v-68.02  c0,0-0.56-9.51-12.7-9.51v-5.81h31.11l0.16,83.37c0.4,6.41,5.92,11.28,12.33,10.88c0.12-0.01,0.24-0.02,0.35-0.03v5.42  L422.64,200.72z M338.99,200.72v-5.69c0,0,10.97-0.79,10.97-10.62v-68.02c0,0-0.55-9.51-12.68-9.51v-5.81h30.44v17.59  c0,0,16.75-18.43,26.32-18.46h18.46v23.67h-11.69c0,0-3.11-10.82-12.8-10.82c-9.7,0-18.46,12.1-20.29,18.38v52.94  c0.4,6.45,5.96,11.36,12.41,10.95c0.09-0.01,0.18-0.01,0.27-0.02v5.42L338.99,200.72z M432.79,81.61V60.48h19.45v21.13H432.79z"/>
</svg>