<svg xmlns="http://www.w3.org/2000/svg" width="251" height="56" fill="none"><path fill="#0098DA" d="M31.812 16.688h-1.363c-.77-6.36-4.09-15.318-10.872-15.318-5.559 0-6.782 5.34-6.782 13.912v27.93c0 4.989.909 11.418 6.397 11.418 7.097 0 11.187-7.589 11.816-15.318h1.363v15.599h-1.363c0-1.23-.454-2.74-1.748-2.74-1.678 0-4.72 3.829-10.033 3.829C7.551 56 0 42.86 0 28 0 13.174 7.551 0 19.192 0c5.698 0 7.83 4.286 9.579 4.286 1.153 0 1.538-1.44 1.678-3.197h1.363zm4.579 36.888h3.81V2.459h-3.81V1.054H55.41v1.405H51.6v51.117h3.81v1.37H36.39zm29.925 0h4.859V2.459c-8.6.914-11.047 8.572-11.431 16.16H58.38V1.055h36.986v17.53h-1.329c-.384-7.588-2.831-15.211-11.43-16.16v51.117h4.858v1.37h-21.15v-1.335zm39.747 0h4.02V30.389L98.897 2.459H96.17V1.054h17.724v1.405h-3.181l9.508 24.417 7.936-19.042c.769-1.756 1.293-2.986 1.293-3.829 0-1.546-2.132-1.546-3.496-1.546V1.054h9.439v1.405c-3.286 0-3.671.316-5.488 4.884l-8.39 20.797v25.4h4.02v1.37h-19.507v-1.334z"/><path fill="#000" d="M133.61 53.576c2.587 0 3.881-.913 4.475-3.197l13.564-49.325h3.67l14.019 52.487h3.356v1.37h-18.528v-1.37h3.67l-3.88-14.86h-10.977l-1.818 7.025c-.839 2.987-1.433 5.34-1.433 6.043 0 1.686 2.971 1.757 4.02 1.757v1.37H133.61zm14.788-35.132h-.175l-4.964 18.901h10.278l-5.139-18.9zm26.638 27.157h8.739v9.345h-8.739zm13.704 7.975c3.495 0 4.02-.597 4.02-7.202V2.459h-3.636V1.054h15.836l8.46 33.445h.14l8.46-33.445h15.381v1.405h-3.67v51.117h3.67v1.37h-18.737v-1.37h4.125V3.829h-.14l-12.55 51.117h-2.517l-12.83-51.573h-.14v43c0 6.57.7 7.203 4.126 7.203v1.37h-9.964v-1.37zm53.52-7.975H251v9.345h-8.74z"/></svg>